<?xml version="1.0" encoding="utf-8"?>
<!-- Generated by Mocodo 4.3.2 -->
<svg width="654" height="136" viewBox="0 0 654 136" xmlns="http://www.w3.org/2000/svg">
<rect x="0" y="0" width="654" height="136" fill="#f7f7f7" stroke="none" stroke-width="0"/>

<!-- Association PURCHASE -->
<g>
	<line x1="52" y1="68" x2="179" y2="68" stroke="#5aae61" stroke-width="2"/>
	<line x1="312" y1="68" x2="179" y2="68" stroke="#5aae61" stroke-width="2"/>
	<g>
		<path d="M217 43 a14 14 90 0 1 14 14 V68 h-104 V57 a14 14 90 0 1 14 -14" fill="#a6dba0" stroke="#a6dba0" stroke-width="0"/>
		<path d="M231 68 v11 a14 14 90 0 1 -14 14 H141 a14 14 90 0 1 -14 -14 V68 H104" fill="#d9f0d3" stroke="#d9f0d3" stroke-width="0"/>
		<rect x="127" y="43" width="104" height="50" fill="none" rx="14" stroke="#5aae61" stroke-width="2"/>
		<line x1="127" y1="68" x2="231" y2="68" stroke="#5aae61" stroke-width="1"/>
		<text x="146" y="60.75" fill="#000000" font-family="Verdana" font-size="12">PURCHASE</text>
		<text x="134" y="85.8" fill="#000000" font-family="Verdana" font-size="12">purchase_date</text>
	</g>
	<text x="100" y="85" fill="#762a83" font-family="Verdana" font-size="12">0,N</text>
	<text x="236" y="85" fill="#762a83" font-family="Verdana" font-size="12">0,N</text>
</g>

<!-- Association DEVELOP -->
<g>
	<line x1="312" y1="68" x2="449" y2="68" stroke="#5aae61" stroke-width="2"/>
	<line x1="591" y1="68" x2="449" y2="68" stroke="#5aae61" stroke-width="2"/>
	<g>
		<path d="M491 43 a14 14 90 0 1 14 14 V68 h-112 V57 a14 14 90 0 1 14 -14" fill="#a6dba0" stroke="#a6dba0" stroke-width="0"/>
		<path d="M505 68 v11 a14 14 90 0 1 -14 14 H407 a14 14 90 0 1 -14 -14 V68 H112" fill="#d9f0d3" stroke="#d9f0d3" stroke-width="0"/>
		<rect x="393" y="43" width="112" height="50" fill="none" rx="14" stroke="#5aae61" stroke-width="2"/>
		<line x1="393" y1="68" x2="505" y2="68" stroke="#5aae61" stroke-width="1"/>
		<text x="421" y="60.75" fill="#000000" font-family="Verdana" font-size="12">DEVELOP</text>
		<text x="400" y="85.8" fill="#000000" font-family="Verdana" font-size="12">publishing_date</text>
	</g>
	<text x="366" y="85" fill="#762a83" font-family="Verdana" font-size="12">1,1</text>
	<text x="510" y="85" fill="#762a83" font-family="Verdana" font-size="12">0,N</text>
</g>

<!-- Entity CLIENT -->
<g>
	<g>
		<rect x="9" y="9" width="86" height="25" fill="#c2a5cf" stroke="none" stroke-width="0" opacity="1"/>
		<rect x="9" y="34" width="86" height="93" fill="#e7d4e8" stroke="none" stroke-width="0" opacity="1"/>
		<rect x="9" y="9" width="86" height="118" fill="none" stroke="#9970ab" stroke-width="2" opacity="1"/>
		<line x1="9" y1="34" x2="95" y2="34" stroke="#9970ab" stroke-width="1"/>
	</g>
	<text x="30" y="26.75" fill="#000000" font-family="Verdana" font-size="12">CLIENT</text>
	<text x="14" y="51.8" fill="#000000" font-family="Verdana" font-size="12">client_id</text>
	<line x1="14" y1="54" x2="66" y2="54" stroke="#000000" stroke-width="1"/>
	<text x="14" y="68.8" fill="#000000" font-family="Verdana" font-size="12">client_name</text>
	<text x="14" y="85.8" fill="#000000" font-family="Verdana" font-size="12">email</text>
	<text x="14" y="102.8" fill="#000000" font-family="Verdana" font-size="12">password</text>
	<text x="14" y="119.8" fill="#000000" font-family="Verdana" font-size="12">birthdate</text>
</g>

<!-- Entity GAMEBOARD -->
<g>
	<g>
		<rect x="263" y="17" width="98" height="25" fill="#c2a5cf" stroke="none" stroke-width="0" opacity="1"/>
		<rect x="263" y="42" width="98" height="77" fill="#e7d4e8" stroke="none" stroke-width="0" opacity="1"/>
		<rect x="263" y="17" width="98" height="102" fill="none" stroke="#9970ab" stroke-width="2" opacity="1"/>
		<line x1="263" y1="42" x2="361" y2="42" stroke="#9970ab" stroke-width="1"/>
	</g>
	<text x="272" y="34.75" fill="#000000" font-family="Verdana" font-size="12">GAMEBOARD</text>
	<text x="268" y="59.8" fill="#000000" font-family="Verdana" font-size="12">gameboard_id</text>
	<line x1="268" y1="62" x2="356" y2="62" stroke="#000000" stroke-width="1"/>
	<text x="268" y="76.8" fill="#000000" font-family="Verdana" font-size="12">title</text>
	<text x="268" y="93.8" fill="#000000" font-family="Verdana" font-size="12">description</text>
	<text x="268" y="110.8" fill="#000000" font-family="Verdana" font-size="12">category</text>
</g>

<!-- Entity PUBLISHER -->
<g>
	<g>
		<rect x="537" y="34" width="108" height="25" fill="#c2a5cf" stroke="none" stroke-width="0" opacity="1"/>
		<rect x="537" y="59" width="108" height="43" fill="#e7d4e8" stroke="none" stroke-width="0" opacity="1"/>
		<rect x="537" y="34" width="108" height="68" fill="none" stroke="#9970ab" stroke-width="2" opacity="1"/>
		<line x1="537" y1="59" x2="645" y2="59" stroke="#9970ab" stroke-width="1"/>
	</g>
	<text x="556" y="51.75" fill="#000000" font-family="Verdana" font-size="12">PUBLISHER</text>
	<text x="542" y="76.8" fill="#000000" font-family="Verdana" font-size="12">publisher_id</text>
	<line x1="542" y1="79" x2="617" y2="79" stroke="#000000" stroke-width="1"/>
	<text x="542" y="93.8" fill="#000000" font-family="Verdana" font-size="12">publisher_name</text>
</g>
</svg>